<?xml version="1.0" encoding="UTF-8" standalone="no"?>
<!-- Created with Inkscape (http://www.inkscape.org/) -->

<svg
   xmlns:dc="http://purl.org/dc/elements/1.1/"
   xmlns:cc="http://creativecommons.org/ns#"
   xmlns:rdf="http://www.w3.org/1999/02/22-rdf-syntax-ns#"
   xmlns:svg="http://www.w3.org/2000/svg"
   xmlns="http://www.w3.org/2000/svg"
   xmlns:sodipodi="http://sodipodi.sourceforge.net/DTD/sodipodi-0.dtd"
   xmlns:inkscape="http://www.inkscape.org/namespaces/inkscape"
   width="136.19807mm"
   height="33.664303mm"
   viewBox="0 0 482.5916 119.28296"
   id="svg8217"
   version="1.1"
   inkscape:version="0.91 r13725"
   sodipodi:docname="logo.svg">
  <defs
     id="defs8219" />
  <sodipodi:namedview
     id="base"
     pagecolor="#ffffff"
     bordercolor="#666666"
     borderopacity="1.0"
     inkscape:pageopacity="0.0"
     inkscape:pageshadow="2"
     inkscape:zoom="0.35"
     inkscape:cx="366.2958"
     inkscape:cy="436.78435"
     inkscape:document-units="px"
     inkscape:current-layer="text4170"
     showgrid="false"
     inkscape:window-width="1366"
     inkscape:window-height="705"
     inkscape:window-x="-8"
     inkscape:window-y="-8"
     inkscape:window-maximized="1"
     inkscape:snap-page="true"
     borderlayer="true"
     fit-margin-top="0"
     fit-margin-left="0"
     fit-margin-right="0"
     fit-margin-bottom="0" />
  <metadata
     id="metadata8222">
    <rdf:RDF>
      <cc:Work
         rdf:about="">
        <dc:format>image/svg+xml</dc:format>
        <dc:type
           rdf:resource="http://purl.org/dc/dcmitype/StillImage" />
        <dc:title></dc:title>
      </cc:Work>
    </rdf:RDF>
  </metadata>
  <g
     inkscape:label="Layer 1"
     inkscape:groupmode="layer"
     id="layer1"
     transform="translate(-8.7042044,-849.86359)">
    <g
       id="g3350"
       transform="matrix(0.36229389,0,0,-0.35685093,61.236815,849.86359)">
      <path
         d="m 0,0 0,-166.75 144.75,-83.25 0,167"
         style="fill:#b1dff9;fill-opacity:1;fill-rule:nonzero;stroke:none"
         id="path3352"
         inkscape:connector-curvature="0" />
    </g>
    <g
       id="g3354"
       transform="matrix(0.36229389,0,0,-0.35685093,61.146245,849.86359)">
      <path
         d="m 0,0 0,-166.75 -144.75,-83.25 0,167"
         style="fill:#338bca;fill-opacity:1;fill-rule:nonzero;stroke:none"
         id="path3356"
         inkscape:connector-curvature="0" />
    </g>
    <g
       id="g3358"
       transform="matrix(0.36229389,0,0,-0.35685093,60.995345,909.36849)">
      <path
         d="M 0,0 -144.333,-83.25 0.5,-166 l 145,83"
         style="fill:#28a9df;fill-opacity:1;fill-rule:nonzero;stroke:none"
         id="path3360"
         inkscape:connector-curvature="0" />
    </g>
    <g
       transform="matrix(1.25,0,0,1.25,-115.58459,954.37246)"
       style="font-style:normal;font-weight:normal;font-size:32px;line-height:125%;font-family:sans-serif;letter-spacing:0px;word-spacing:0px;fill:#000000;fill-opacity:1;stroke:none;stroke-width:1px;stroke-linecap:butt;stroke-linejoin:miter;stroke-opacity:1;image-rendering:auto"
       id="text4170">
      <path
         d="m 404.17619,-0.60260143 q 7.4414,6.79687003 17.69531,6.79687003 11.01562,0 18.80859,-7.79297 0.9961,-0.99609 1.875,-2.05078 l 5.56641,1.99219 q -1.52344,2.10936997 -3.45703,4.04297 -9.4336,9.4335904 -22.79297,9.4335904 -13.30078,0 -22.73438,-9.4335904 -9.43359,-9.4336 -9.43359,-22.7929696 0,-13.30078 9.43359,-22.73438 9.4336,-9.43359 22.73438,-9.43359 11.42578,0 19.98047,6.85547 1.40625,1.17187 2.8125,2.57812 0.52734,0.52735 0.99609,1.05469 l -3.98437,3.98438 -37.5,37.49999957 z M 437.809,-41.676821 q -6.85547,-5.27344 -15.9375,-5.27344 -10.95703,0 -18.75,7.79297 -7.79297,7.73437 -7.79297,18.75 0,9.08203 5.27344,15.9374996 L 437.809,-41.676821 Z"
         style="font-style:normal;font-variant:normal;font-weight:normal;font-stretch:normal;font-size:120px;font-family:'Caviar Dreams';-inkscape-font-specification:'Caviar Dreams';fill:#ffffff;fill-opacity:1"
         id="path8140"
         inkscape:connector-curvature="0" />
      <path
         d="m 462.1254,-47.360421 5.27344,0 0,10.48828 q 1.64063,-2.34375 3.8086,-4.51171 6.97265,-6.97266 14.29687,-7.32422 l 0,5.74218 q -4.98047,0.23438 -10.3125,5.56641 -7.5,7.44141 -7.79297,17.87109 l 0,29.70704 -5.27344,0 0,-57.53907 z"
         style="font-style:normal;font-variant:normal;font-weight:normal;font-stretch:normal;font-size:120px;font-family:'Caviar Dreams';-inkscape-font-specification:'Caviar Dreams';fill:#ffffff;fill-opacity:1"
         id="path8142"
         inkscape:connector-curvature="0" />
    </g>
    <path
       d="m 165.29776,851.36746 q 9.00879,0 15.38085,6.37208 6.44532,6.37207 6.44532,15.38086 0,9.08203 -9.30175,16.91894 8.20312,1.68457 15.4541,9.66797 11.71875,11.79199 11.71875,28.49122 0,16.62597 -11.71875,28.78418 -10.91309,11.2793 -26.07423,11.49902 l 0,0.0733 -22.70507,0 0,-117.1875 20.80078,0 z m -14.20898,43.57912 0,67.0166 16.11327,0 0,0.0732 q 12.23145,-0.80566 21.09375,-10.03417 9.74121,-10.0342 9.74121,-23.80372 0,-13.76954 -9.74121,-23.51075 -9.7412,-9.7412 -23.51074,-9.7412 l -13.69628,0 z m 0,-36.98732 0,29.95607 15.89355,0 q 5.49316,-0.5127 9.375,-4.10157 4.46777,-4.10156 4.46777,-10.69336 0,-6.5918 -4.46777,-10.83985 -4.46778,-4.32129 -11.05957,-4.32129 l -14.20898,0 z"
       style="font-style:normal;font-variant:normal;font-weight:normal;font-stretch:normal;font-size:120px;line-height:125%;font-family:'Caviar Dreams';-inkscape-font-specification:'Caviar Dreams';letter-spacing:0px;word-spacing:0px;fill:#2198d3;fill-opacity:1;stroke:none;stroke-width:1px;stroke-linecap:butt;stroke-linejoin:miter;stroke-opacity:1"
       id="path8133"
       inkscape:connector-curvature="0" />
    <path
       d="m 230.4833,851.36746 0,117.18751 -6.59179,0 0,-117.18751 6.59179,0 z"
       style="font-style:normal;font-variant:normal;font-weight:normal;font-stretch:normal;font-size:120px;line-height:125%;font-family:'Caviar Dreams';-inkscape-font-specification:'Caviar Dreams';letter-spacing:0px;word-spacing:0px;fill:#2198d3;fill-opacity:1;stroke:none;stroke-width:1px;stroke-linecap:butt;stroke-linejoin:miter;stroke-opacity:1"
       id="path8135"
       inkscape:connector-curvature="0" />
    <path
       d="m 261.61124,851.36746 44.01855,76.17188 43.94531,-76.17188 7.54395,0 -0.29297,0.5127 0,116.67481 -6.59179,0 0,-105.24902 -44.6045,77.19726 -44.67774,-77.19726 0,105.24902 -6.59179,0 0,-116.67481 -0.29297,-0.5127 7.54395,0 z"
       style="font-style:normal;font-variant:normal;font-weight:normal;font-stretch:normal;font-size:120px;line-height:125%;font-family:'Caviar Dreams';-inkscape-font-specification:'Caviar Dreams';letter-spacing:0px;word-spacing:0px;fill:#2198d3;fill-opacity:1;stroke:none;stroke-width:1px;stroke-linecap:butt;stroke-linejoin:miter;stroke-opacity:1"
       id="path8137"
       inkscape:connector-curvature="0" />
  </g>
</svg>
